<svg width="363" height="281" viewBox="0 0 363 281" fill="none" xmlns="http://www.w3.org/2000/svg">
<rect y="102.102" width="80" height="80" transform="rotate(-51.0268 0 102.102)" fill="#0000FF"/>
<path fill-rule="evenodd" clip-rule="evenodd" d="M193.333 44.6077L205.36 75.887L230.662 44.6077H252.093V18.1127L263.727 3.73101C276.406 8.37945 288.283 14.6908 299.093 22.4007V67H308.958L290.132 99.6077H355.226C359.688 113.813 362.093 128.93 362.093 144.608C362.093 146.617 362.054 148.617 361.976 150.607L332.065 145.886L341.189 169.616C313.992 170.098 292.093 192.296 292.093 219.608C292.093 235.089 299.129 248.927 310.178 258.098C300.525 266.449 289.795 273.588 278.225 279.28L252.093 261.231V244.608H222.263L213.987 229.401L204.689 244.608H172.093V275C168.862 274.344 165.518 274 162.093 274C155.328 274 148.877 275.343 142.992 277.778C131.148 271.62 120.229 263.928 110.499 254.965C113.448 248.589 115.093 241.487 115.093 234C115.093 230.627 114.759 227.333 114.123 224.147L134.427 188.98H86.8719C80.9215 186.096 74.313 184.357 67.3327 184.049C64.6849 174.308 62.9941 164.173 62.3674 153.751L90.5642 118.893C114.144 114.869 132.093 94.3346 132.093 69.6077C132.093 54.1263 125.057 40.2884 114.009 31.1169C130.593 16.7717 150.353 6.00026 172.093 0V44.6077H193.333ZM212.094 154.608C217.617 154.608 222.094 150.131 222.094 144.608C222.094 139.085 217.617 134.608 212.094 134.608C206.571 134.608 202.094 139.085 202.094 144.608C202.094 150.131 206.571 154.608 212.094 154.608Z" fill="#68DF8A"/>
<circle cx="244.094" cy="129" r="10" fill="#569F3B"/>
<path d="M282.137 167.384C270.84 163.451 258.508 163.698 247.378 168.081C236.248 172.463 227.058 180.691 221.476 191.27L226.731 194.043C231.65 184.721 239.748 177.471 249.555 173.609C259.362 169.747 270.229 169.529 280.183 172.995L282.137 167.384Z" fill="#569F3B"/>
<path fill-rule="evenodd" clip-rule="evenodd" d="M223.527 152.678L222.093 147L220.66 152.678C220.523 153 220.427 153.371 220.384 153.771L220.361 153.862H220.376C220.365 153.983 220.36 154.108 220.36 154.234C220.36 155.762 221.136 157 222.093 157C223.051 157 223.827 155.762 223.827 154.234C223.827 154.108 223.821 153.983 223.811 153.862H223.825L223.803 153.771C223.76 153.371 223.664 153 223.527 152.678Z" fill="#569F3B"/>
<path d="M222 144.5C222 150.023 217.523 154.5 212 154.5C206.477 154.5 202 150.023 202 144.5C202 138.977 206.477 134.5 212 134.5C217.523 134.5 222 138.977 222 144.5Z" fill="#569F3B"/>
</svg>
