<svg width="424" height="330" viewBox="0 0 424 330" fill="none" xmlns="http://www.w3.org/2000/svg">
<path d="M258.922 139.883L310.883 49.8833L362.845 139.883L258.922 139.883Z" fill="#0000FF"/>
<path d="M141 5H221V85H141V5Z" fill="#0000FF"/>
<circle cx="51" cy="110" r="50" fill="#0000FF"/>
<line x1="310.75" y1="115.433" x2="180.75" y2="40.4331" stroke="white"/>
<line x1="93.0513" y1="133.433" x2="49.75" y2="108.433" stroke="#FF0000"/>
<path fill-rule="evenodd" clip-rule="evenodd" d="M31 184.608C31 175.003 31.9027 165.61 33.6278 156.507C39.0389 158.512 44.8915 159.608 51 159.608C78.6142 159.608 101 137.222 101 109.608C101 94.1263 93.9641 80.2884 82.9154 71.1169C99.4992 56.7717 119.26 46.0003 141 40V84.6077H221V40C248.501 47.5902 272.834 62.815 291.576 83.2509L259.038 139.608H324.133C328.595 153.813 331 168.93 331 184.608C331 194.212 330.097 203.606 328.372 212.708C322.961 210.703 317.108 209.608 311 209.608C283.386 209.608 261 231.993 261 259.608C261 275.089 268.036 288.927 279.085 298.098C262.501 312.444 242.74 323.215 221 329.215V284.608H141V329.215C113.502 321.626 89.171 306.403 70.4296 285.971L103.333 228.98H37.6713C33.335 214.957 31 200.055 31 184.608Z" fill="#68DF8A"/>
<circle cx="181" cy="184.608" r="10" fill="#569F3B"/>
<path fill-rule="evenodd" clip-rule="evenodd" d="M64.0051 11C64.0051 23.1503 58.1825 33 51 33C58.1825 33 64.0051 42.8497 64.0051 55C64.0085 55 64.0119 55 64.0153 55C64.0085 54.7081 64.0051 54.4147 64.0051 54.12C64.0051 41.9755 69.8222 32.1293 77 32.12C69.9964 32.1109 64.2882 22.7366 64.0153 11L64.0051 11Z" fill="#FBFB2C"/>
<path fill-rule="evenodd" clip-rule="evenodd" d="M58.0063 54C58.0063 69.7401 50.84 82.5 42 82.5C50.84 82.5 58.0063 95.2599 58.0063 111C58.0105 111 58.0147 111 58.0188 111C58.0105 110.622 58.0063 110.242 58.0063 109.86C58.0063 94.1273 65.1657 81.3721 74 81.36C65.3801 81.3482 58.3548 69.2042 58.0188 54L58.0063 54Z" fill="#FBFB2C"/>
<path fill-rule="evenodd" clip-rule="evenodd" d="M30.5081 0C30.5081 24.5767 21.3263 44.5 10 44.5C21.3263 44.5 30.5081 64.4233 30.5081 89C30.5134 89 30.5188 89 30.5241 89C30.5134 88.4095 30.508 87.8161 30.508 87.22C30.508 62.655 39.6811 42.7389 51 42.72C51 42.72 51 42.72 51 42.72C39.9558 42.7016 30.9545 23.74 30.5241 1.38223e-05L30.5081 0Z" fill="#FBFB2C"/>
<path d="M180.154 230.064C186.049 232.956 192.456 234.658 199.009 235.074C205.562 235.49 212.132 234.611 218.346 232.487C224.559 230.363 230.293 227.037 235.22 222.697C240.148 218.357 244.172 213.09 247.064 207.195L241.73 204.578C239.182 209.773 235.636 214.414 231.294 218.238C226.952 222.062 221.899 224.994 216.424 226.865C210.949 228.736 205.159 229.511 199.385 229.145C193.611 228.778 187.965 227.278 182.771 224.73L180.154 230.064Z" fill="#569F3B"/>
<circle cx="221" cy="175" r="10" fill="#569F3B"/>
</svg>
