<svg width="229" height="135" viewBox="0 0 229 135" fill="none" xmlns="http://www.w3.org/2000/svg">
<path fill-rule="evenodd" clip-rule="evenodd" d="M166.081 63.9637L129.08 115.923L189.366 95.08C193.242 94.5086 197.199 93.174 200.969 91.0684L201.933 90.7353L201.816 90.5802C202.943 89.911 204.051 89.1717 205.133 88.3623C218.22 78.5692 222.525 62.2065 214.749 51.8151C206.973 41.4238 190.06 40.9388 176.973 50.7319C175.892 51.5414 174.87 52.3958 173.91 53.288L173.794 53.1329L173.203 53.9631C170.119 56.9859 167.723 60.4058 166.081 63.9637Z" fill="#FFA304"/>
<path fill-rule="evenodd" clip-rule="evenodd" d="M40.5971 97.4618L101.82 115.369L62.3524 65.2574C60.5409 61.7829 57.982 58.4828 54.7562 55.6124L54.1255 54.8117L54.0171 54.9722C53.0153 54.1274 51.9535 53.3234 50.8339 52.5671C37.2895 43.4173 20.42 44.7184 13.1548 55.4731C5.88966 66.2278 10.9799 82.3635 24.5243 91.5132C25.6439 92.2695 26.7862 92.9544 27.9439 93.5685L27.8354 93.729L28.8137 94.0152C32.6807 95.9363 36.6976 97.0783 40.5971 97.4618Z" fill="#FFA304"/>
<path fill-rule="evenodd" clip-rule="evenodd" d="M90.52 49.8031L114.927 108.737L129.25 46.5778C130.823 42.9889 131.791 38.9268 132.007 34.6142L132.236 33.621L132.043 33.6371C132.073 32.327 132.034 30.9957 131.922 29.6492C130.566 13.3603 118.981 1.02873 106.047 2.1058C93.1134 3.18288 83.728 17.2608 85.0845 33.5497C85.1966 34.8961 85.3786 36.2155 85.6255 37.5025L85.4324 37.5185L85.8224 38.4602C86.7484 42.6777 88.3754 46.5237 90.52 49.8031Z" fill="#FFA304"/>
</svg>
